<?xml version="1.0" standalone="no"?>
<!DOCTYPE svg PUBLIC "-//W3C//DTD SVG 20010904//EN"
 "http://www.w3.org/TR/2001/REC-SVG-20010904/DTD/svg10.dtd">
<svg version="1.0" xmlns="http://www.w3.org/2000/svg"
 width="600.000000pt" height="527.000000pt" viewBox="0 0 600.000000 527.000000"
 preserveAspectRatio="xMidYMid meet">

<g transform="translate(0.000000,527.000000) scale(0.100000,-0.100000)"
fill="#000000" stroke="none">
<path d="M0 2635 l0 -2635 3000 0 3000 0 0 2635 0 2635 -3000 0 -3000 0 0
-2635z m3005 1556 l40 -7 -38 -13 c-31 -11 -47 -11 -83 -1 -81 23 -18 40 81
21z m172 -26 c26 -18 44 -71 52 -150 5 -48 10 -60 25 -63 15 -3 18 0 12 21 -3
14 -3 33 0 42 5 13 9 11 20 -11 22 -42 17 -59 -26 -88 -29 -19 -42 -36 -51
-68 -6 -24 -13 -49 -15 -57 -3 -8 -12 -11 -27 -7 -15 3 -35 -3 -59 -19 -33
-22 -43 -24 -98 -18 -33 3 -62 9 -64 12 -8 13 20 37 52 47 48 13 44 28 -8 36
-31 4 -21 6 33 3 42 -2 77 0 77 5 0 22 -37 34 -106 34 -41 1 -74 3 -74 6 0 7
81 43 100 44 8 1 16 11 18 23 3 17 -3 24 -22 28 -14 3 -37 7 -50 10 -30 6 -59
-25 -54 -57 4 -31 -27 -78 -51 -78 -10 0 -30 17 -44 37 -15 21 -27 32 -27 25
0 -7 -4 -11 -9 -8 -5 4 -7 -11 -5 -34 5 -39 4 -40 -16 -28 -11 7 -20 16 -20
20 0 5 -7 8 -15 8 -8 0 -15 5 -15 10 0 6 4 10 9 10 5 0 7 34 4 78 -6 88 9 157
36 172 17 9 19 6 15 -34 -4 -42 -2 -45 27 -60 37 -18 67 -20 103 -6 27 10 34
2 15 -17 -7 -7 -7 -13 -1 -17 15 -9 31 16 38 60 3 21 8 43 11 47 6 10 33 -12
33 -27 0 -14 56 -46 81 -46 29 0 81 29 76 43 -2 6 -21 17 -43 24 l-39 13 48
-4 c35 -3 47 0 47 10 0 8 -4 14 -8 14 -5 0 -17 7 -28 15 -19 14 -19 14 1 15
11 0 30 -7 42 -15z m-499 -129 c6 -31 -16 -43 -27 -15 -5 13 -7 28 -4 32 8 13
28 2 31 -17z m498 -404 c-16 -31 -36 -50 -36 -35 0 14 41 76 46 70 3 -3 -2
-19 -10 -35z m-96 -158 c0 -9 -11 -57 -25 -108 -13 -50 -29 -127 -35 -171 -6
-44 -19 -123 -30 -175 -11 -52 -20 -119 -20 -147 0 -29 -4 -53 -9 -53 -9 0
-17 76 -31 300 -10 152 -25 267 -39 285 -5 5 -7 24 -4 41 5 30 5 30 56 26 29
-2 68 1 87 6 49 14 50 14 50 -4z m-113 -1776 c-3 -8 -6 -5 -6 6 -1 11 2 17 5
13 3 -3 4 -12 1 -19z"/>
</g>
</svg>
